<svg width="29" height="29" viewBox="0 0 29 29" fill="none" xmlns="http://www.w3.org/2000/svg">
<g id="facebook-144 1">
<path id="Vector" d="M20.8006 4.78817C20.8006 4.71156 20.7855 4.63571 20.7562 4.56494C20.7269 4.49416 20.6839 4.42986 20.6298 4.37569C20.5756 4.32152 20.5113 4.27855 20.4405 4.24924C20.3697 4.21992 20.2939 4.20484 20.2173 4.20484H17.3006C15.8319 4.13167 14.394 4.64279 13.301 5.62651C12.2079 6.61023 11.5487 7.98658 11.4673 9.45483V12.6048H8.55062C8.39591 12.6048 8.24754 12.6663 8.13814 12.7757C8.02874 12.8851 7.96729 13.0335 7.96729 13.1882V16.2215C7.96729 16.3762 8.02874 16.5246 8.13814 16.634C8.24754 16.7434 8.39591 16.8048 8.55062 16.8048H11.4673V24.6215C11.4673 24.7762 11.5287 24.9246 11.6381 25.034C11.7475 25.1434 11.8959 25.2048 12.0506 25.2048H15.5506C15.6272 25.2048 15.7031 25.1897 15.7739 25.1604C15.8446 25.1311 15.9089 25.0881 15.9631 25.034C16.0173 24.9798 16.0602 24.9155 16.0895 24.8447C16.1189 24.774 16.134 24.6981 16.134 24.6215V16.8048H19.1906C19.3203 16.8067 19.447 16.7653 19.5505 16.6871C19.654 16.6089 19.7286 16.4984 19.7623 16.3732L20.6023 13.3398C20.6255 13.2536 20.6286 13.1633 20.6114 13.0757C20.5942 12.9881 20.5571 12.9056 20.503 12.8346C20.4489 12.7636 20.3793 12.706 20.2994 12.6662C20.2195 12.6263 20.1315 12.6053 20.0423 12.6048H16.134V9.45483C16.163 9.16606 16.2986 8.89847 16.5143 8.70431C16.73 8.51016 17.0104 8.40338 17.3006 8.40484H20.2173C20.372 8.40484 20.5204 8.34338 20.6298 8.23398C20.7392 8.12458 20.8006 7.97621 20.8006 7.8215V4.78817Z" fill="#3B5998"/>
</g>
</svg>
