<svg width="30" height="30" viewBox="0 0 30 30" fill="none" xmlns="http://www.w3.org/2000/svg">
<g clip-path="url(#clip0_32_633)">
<path d="M7.03073 15.2048C7.03073 14.2841 7.18782 13.4008 7.46573 12.5731L2.58648 8.92392C1.60616 10.8723 1.09708 13.0237 1.10023 15.2048C1.10023 17.462 1.63432 19.5911 2.58407 21.4809L7.4609 17.8257C7.17654 16.9811 7.03126 16.096 7.03073 15.2048Z" fill="#FBBC05"/>
<path d="M15.6002 6.82747C17.6423 6.82747 19.4874 7.53555 20.9374 8.69555L25.1557 4.57151C22.5856 2.3808 19.2904 1.02747 15.6002 1.02747C9.87026 1.02747 4.94509 4.23559 2.58643 8.92392L7.46809 12.5731C8.59184 9.23084 11.7963 6.82747 15.6002 6.82747Z" fill="#EA4335"/>
<path d="M15.6002 23.5822C11.7951 23.5822 8.59063 21.1788 7.46568 17.8366L2.58643 21.4857C4.94388 26.1741 9.86905 29.3822 15.6002 29.3822C19.1358 29.3822 22.5118 28.1533 25.0469 25.849L20.4142 22.3425C19.108 23.1484 17.4622 23.5822 15.599 23.5822" fill="#34A853"/>
<path d="M29.4405 15.2048C29.4405 14.3675 29.3075 13.4648 29.1106 12.6275H15.599V18.1048H23.3758C22.988 19.9729 21.9295 21.4084 20.4154 22.3425L25.047 25.8491C27.7089 23.43 29.4405 19.8267 29.4405 15.2048Z" fill="#4285F4"/>
</g>
<defs>
<clipPath id="clip0_32_633">
<rect width="29" height="29" fill="white" transform="translate(0.967285 0.704834)"/>
</clipPath>
</defs>
</svg>
