<svg width="30" height="30" viewBox="0 0 30 30" fill="none" xmlns="http://www.w3.org/2000/svg">
<path opacity="0.6" d="M25 15.8062C25.4453 15.8062 25.8062 15.4453 25.8062 15C25.8062 14.5547 25.4453 14.1938 25 14.1938V15.8062ZM4.42991 14.4299C4.11506 14.7448 4.11506 15.2552 4.42991 15.5701L9.5607 20.7009C9.87555 21.0157 10.386 21.0157 10.7009 20.7009C11.0157 20.386 11.0157 19.8756 10.7009 19.5607L6.14018 15L10.7009 10.4393C11.0157 10.1244 11.0157 9.61397 10.7009 9.29912C10.386 8.98427 9.87555 8.98427 9.5607 9.29912L4.42991 14.4299ZM25 14.1938H5V15.8062H25V14.1938Z" fill="#0A0A0A"/>
</svg>
